<?xml version="1.0" standalone="no"?>
<!DOCTYPE svg PUBLIC "-//W3C//DTD SVG 20010904//EN"
 "http://www.w3.org/TR/2001/REC-SVG-20010904/DTD/svg10.dtd">
<svg version="1.0" xmlns="http://www.w3.org/2000/svg"
 width="260.000000pt" height="260.000000pt" viewBox="0 0 260.000000 260.000000"
 preserveAspectRatio="xMidYMid meet">
<metadata>
Created by potrace 1.14, written by Peter Selinger 2001-2017
</metadata>
<g transform="translate(0.000000,260.000000) scale(0.100000,-0.100000)"
fill="#000000" stroke="none">
<path d="M0 1300 l0 -1300 1300 0 1300 0 0 1300 0 1300 -1300 0 -1300 0 0
-1300z m2163 1083 c-2 -8 4 -10 14 -6 11 4 14 3 9 -5 -5 -9 -225 -12 -884 -12
-874 1 -877 1 -853 20 23 20 40 20 870 18 657 -2 845 -6 844 -15z m210 -193
c-3 -12 1 -22 11 -26 10 -4 16 -18 16 -35 0 -22 -5 -29 -20 -29 -17 0 -20 7
-20 48 0 41 5 62 16 62 1 0 0 -9 -3 -20z m-2133 -335 c0 -308 0 -315 -20 -315
-20 0 -20 7 -20 293 0 249 2 296 16 315 8 12 17 22 20 22 2 0 4 -142 4 -315z
m366 -38 c5 -11 25 -26 44 -32 25 -8 46 -28 75 -69 l39 -57 -2 -98 c-2 -111 5
-125 61 -125 73 0 344 213 413 324 34 56 39 60 73 60 20 -1 45 -6 57 -13 31
-18 104 -91 104 -103 0 -6 9 -19 20 -29 11 -10 18 -20 16 -23 -3 -2 2 -22 10
-44 12 -34 12 -39 0 -35 -15 6 -17 -5 -34 -188 -5 -56 -14 -110 -19 -120 -6
-11 -13 -58 -15 -105 -5 -70 -14 -106 -54 -209 l-48 -124 -50 -23 c-62 -29
-78 -30 -100 -5 -30 33 -45 92 -46 174 0 78 31 262 51 300 7 13 8 22 1 29 -7
7 -46 -14 -116 -60 -59 -39 -141 -85 -184 -103 -69 -30 -87 -34 -174 -34 -91
0 -98 2 -140 30 -23 17 -57 54 -75 83 l-31 53 -26 -53 c-14 -29 -31 -75 -38
-103 -6 -27 -25 -68 -40 -89 -15 -22 -28 -52 -28 -66 0 -15 -9 -35 -19 -44
-10 -10 -24 -36 -30 -60 -5 -23 -21 -57 -33 -76 -21 -30 -30 -35 -70 -38 l-46
-3 -26 53 c-34 70 -49 147 -44 222 3 48 20 97 77 231 155 359 274 566 350 605
33 16 38 17 62 3 14 -8 29 -24 35 -36z m1836 -4 c13 -11 35 -28 51 -38 20 -13
27 -25 27 -50 0 -72 -69 -116 -228 -147 -59 -11 -127 -28 -152 -38 -25 -10
-63 -21 -85 -25 -96 -15 -121 -34 -96 -74 7 -11 33 -13 139 -7 l130 7 43 -45
c23 -25 50 -46 60 -46 15 0 19 -7 19 -35 0 -29 -6 -38 -42 -63 -107 -73 -120
-77 -275 -77 -135 0 -144 -2 -158 -22 -23 -32 -65 -119 -65 -134 0 -9 30 -11
138 -5 162 8 172 9 282 35 l85 19 35 -34 c20 -19 41 -34 47 -34 7 0 15 -10 19
-22 4 -13 11 -26 17 -30 21 -13 -49 -100 -103 -128 -46 -24 -175 -51 -265 -55
-38 -3 -100 -8 -136 -13 -82 -10 -158 -6 -226 13 -72 21 -115 75 -131 166 -16
91 -15 171 3 195 8 10 15 25 15 33 0 8 6 22 14 30 7 9 36 65 64 125 l51 109
-20 25 c-21 27 -34 71 -44 150 -12 88 7 100 259 161 88 22 199 45 246 52 47 6
103 15 125 19 67 13 132 6 157 -17z m-2202 -1287 c0 -58 -4 -108 -10 -111 -6
-3 -7 1 -4 9 4 11 0 16 -10 16 -14 0 -16 14 -16 95 0 88 1 95 20 95 19 0 20
-7 20 -104z m2160 -23 c0 -49 -18 -113 -32 -113 -4 0 -8 36 -8 80 0 73 2 80
20 80 17 0 20 -7 20 -47z m-200 -271 c0 -30 -61 -32 -904 -32 -750 0 -855 2
-860 15 -6 18 -36 20 -36 3 0 -6 -3 -9 -6 -5 -25 25 43 27 907 27 494 0 899
-4 899 -8z"/>
</g>
</svg>
